<svg xmlns="http://www.w3.org/2000/svg" viewBox="0 0 200 160" width="200" height="160" fill="none" role="img" aria-label="A phone next to a laptop">
  <ellipse cx="100" cy="146" rx="90" ry="10" fill="#FFE4C4"/>
  <rect x="14" y="30" width="118" height="80" rx="8" fill="#FBEFD9" stroke="#5C1A1B" stroke-width="6"/>
  <path d="M4 118 h138 l-8 14 H12 z" fill="#D98A1C" stroke="#5C1A1B" stroke-width="6" stroke-linejoin="round"/>
  <path d="M34 56 h54 M34 72 h78 M34 88 h40" stroke="#E7CBA0" stroke-width="7" stroke-linecap="round"/>
  <path d="M112 12 c14 -8 34 -6 46 4" stroke="#C33A19" stroke-width="4" stroke-linecap="round" stroke-dasharray="3 7"/>
  <path d="M154 8 l6 9 -11 1" stroke="#C33A19" stroke-width="4" stroke-linecap="round" stroke-linejoin="round"/>
  <rect x="136" y="26" width="52" height="102" rx="10" fill="#5C1A1B"/>
  <rect x="142" y="36" width="40" height="78" rx="4" fill="#FBEFD9"/>
  <circle cx="162" cy="75" r="14" fill="#D98A1C"/>
  <circle cx="162" cy="69" r="5" fill="#FBEFD9"/>
  <path d="M153 84 c2-6 16-6 18 0" stroke="#FBEFD9" stroke-width="4" stroke-linecap="round"/>
  <rect x="155" y="29" width="14" height="3" rx="1.5" fill="#FBEFD9"/>
</svg>
