<svg xmlns="http://www.w3.org/2000/svg" width="220" height="220" viewBox="0 0 220 220" fill="none" stroke="#c33a19" stroke-width="1.6" stroke-linecap="round" stroke-linejoin="round">
  <!-- A repeating tile of WordCamp-day line icons for the picker hero's background. -->
  <g transform="translate(14 16)"><rect x="3" y="4" width="18" height="18" rx="2"/><path d="M16 2v4M8 2v4M3 10h18"/></g>
  <g transform="translate(92 8) rotate(-8 12 12)"><path d="M17 8h1a4 4 0 1 1 0 8h-1"/><path d="M3 8h14v9a4 4 0 0 1-4 4H7a4 4 0 0 1-4-4Z"/><path d="M6 2v2M10 2v2M14 2v2"/></g>
  <g transform="translate(168 24)"><path d="M12 21s-7-6.2-7-11a7 7 0 0 1 14 0c0 4.8-7 11-7 11z"/><circle cx="12" cy="10" r="2.5"/></g>
  <g transform="translate(50 84) rotate(6 12 12)"><path d="M16 21v-2a4 4 0 0 0-4-4H6a4 4 0 0 0-4 4v2"/><circle cx="9" cy="7" r="4"/><path d="M22 21v-2a4 4 0 0 0-3-3.87M16 3.13a4 4 0 0 1 0 7.75"/></g>
  <g transform="translate(132 92)"><path d="m12 3 2.7 5.6 6.1.9-4.4 4.3 1 6.1L12 17l-5.4 2.9 1-6.1-4.4-4.3 6.1-.9z"/></g>
  <g transform="translate(12 160) rotate(-6 12 12)"><rect x="9" y="2" width="6" height="12" rx="3"/><path d="M5 10a7 7 0 0 0 14 0M12 17v5"/></g>
  <g transform="translate(90 166)"><rect x="3" y="3" width="7" height="7" rx="1"/><rect x="14" y="3" width="7" height="7" rx="1"/><rect x="3" y="14" width="7" height="7" rx="1"/><path d="M14 14h3v3h-3zM20 20h1v1M14 20h.5"/></g>
  <g transform="translate(170 150) rotate(10 12 12)"><path d="M6 8a6 6 0 0 1 12 0c0 7 3 9 3 9H3s3-2 3-9"/><path d="M10.3 21a1.94 1.94 0 0 0 3.4 0"/></g>
  <circle cx="200" cy="100" r="2"/><circle cx="112" cy="60" r="1.5"/><circle cx="60" cy="140" r="1.5"/><path d="M180 205h10M185 200v10"/>
</svg>
