<svg xmlns="http://www.w3.org/2000/svg" width="200" height="200" viewBox="0 0 200 200" fill="none" stroke="#c33a19" stroke-opacity="0.14" stroke-width="1.6" stroke-linecap="round" stroke-linejoin="round"><g transform="translate(14 16) rotate(0 12 12)"><rect x="3" y="4" width="18" height="18" rx="2"/><path d="M16 2v4M8 2v4M3 10h18"/></g><g transform="translate(96 8) rotate(-8 12 12)"><path d="M17 8h1a4 4 0 1 1 0 8h-1"/><path d="M3 8h14v9a4 4 0 0 1-4 4H7a4 4 0 0 1-4-4Z"/><path d="M6 2v2M10 2v2M14 2v2"/></g><g transform="translate(166 26) rotate(0 12 12)"><path d="M12 21s-7-6.2-7-11a7 7 0 0 1 14 0c0 4.8-7 11-7 11z"/><circle cx="12" cy="10" r="2.5"/></g><g transform="translate(52 84) rotate(6 12 12)"><path d="M16 21v-2a4 4 0 0 0-4-4H6a4 4 0 0 0-4 4v2"/><circle cx="9" cy="7" r="4"/><path d="M22 21v-2a4 4 0 0 0-3-3.87M16 3.13a4 4 0 0 1 0 7.75"/></g><g transform="translate(132 92) rotate(0 12 12)"><path d="m12 3 2.7 5.6 6.1.9-4.4 4.3 1 6.1L12 17l-5.4 2.9 1-6.1-4.4-4.3 6.1-.9z"/></g><g transform="translate(12 158) rotate(-6 12 12)"><rect x="9" y="2" width="6" height="12" rx="3"/><path d="M5 10a7 7 0 0 0 14 0M12 17v5"/></g><g transform="translate(92 164) rotate(0 12 12)"><rect x="5" y="3" width="14" height="18" rx="2"/><circle cx="12" cy="10" r="3"/><path d="M8 17h8M10 3v3h4V3"/></g><g transform="translate(168 150) rotate(10 12 12)"><path d="M6 8a6 6 0 0 1 12 0c0 7 3 9 3 9H3s3-2 3-9"/><path d="M10.3 21a1.94 1.94 0 0 0 3.4 0"/></g><circle cx="196" cy="100" r="1.8"/><circle cx="110" cy="58" r="1.4"/><circle cx="60" cy="136" r="1.4"/></svg>
